<svg width="1400" height="1120" viewBox="0 0 1400 1120" fill="none" xmlns="http://www.w3.org/2000/svg">
  <defs>
    <radialGradient id="bg" cx="0" cy="0" r="1" gradientUnits="userSpaceOnUse" gradientTransform="translate(690 560) rotate(42) scale(980 820)">
      <stop stop-color="#9A8DFF"/>
      <stop offset="0.54" stop-color="#786AFF"/>
      <stop offset="1" stop-color="#5B46EA"/>
    </radialGradient>
    <radialGradient id="pigBody" cx="0" cy="0" r="1" gradientUnits="userSpaceOnUse" gradientTransform="translate(650 548) rotate(52) scale(430 390)">
      <stop stop-color="#FFD1D8"/>
      <stop offset="0.42" stop-color="#F89FB9"/>
      <stop offset="0.78" stop-color="#E57EA8"/>
      <stop offset="1" stop-color="#B85386"/>
    </radialGradient>
    <radialGradient id="snout" cx="0" cy="0" r="1" gradientUnits="userSpaceOnUse" gradientTransform="translate(470 632) rotate(45) scale(106 92)">
      <stop stop-color="#FFD1D8"/>
      <stop offset="0.72" stop-color="#F38FB1"/>
      <stop offset="1" stop-color="#D76695"/>
    </radialGradient>
    <linearGradient id="capTop" x1="486" y1="222" x2="1018" y2="448" gradientUnits="userSpaceOnUse">
      <stop stop-color="#9688FF"/>
      <stop offset="0.5" stop-color="#6D58EE"/>
      <stop offset="1" stop-color="#3F2ABB"/>
    </linearGradient>
    <linearGradient id="tag" x1="112" y1="338" x2="440" y2="510" gradientUnits="userSpaceOnUse">
      <stop stop-color="#A99EFF"/>
      <stop offset="1" stop-color="#6752F1"/>
    </linearGradient>
    <linearGradient id="coin" x1="784" y1="713" x2="1111" y2="934" gradientUnits="userSpaceOnUse">
      <stop stop-color="#B5ABFF"/>
      <stop offset="0.55" stop-color="#735FF1"/>
      <stop offset="1" stop-color="#4930C8"/>
    </linearGradient>
    <filter id="bigShadow" x="90" y="90" width="1160" height="980" filterUnits="userSpaceOnUse" color-interpolation-filters="sRGB">
      <feDropShadow dx="0" dy="40" stdDeviation="35" flood-color="#251174" flood-opacity="0.34"/>
    </filter>
    <filter id="tagShadow" x="38" y="240" width="510" height="310" filterUnits="userSpaceOnUse" color-interpolation-filters="sRGB">
      <feDropShadow dx="0" dy="20" stdDeviation="18" flood-color="#2A167E" flood-opacity="0.34"/>
    </filter>
    <filter id="softGlow" x="0" y="0" width="1400" height="1120" filterUnits="userSpaceOnUse" color-interpolation-filters="sRGB">
      <feGaussianBlur stdDeviation="42"/>
    </filter>
  </defs>

  <rect width="1400" height="1120" fill="#786aff"/>
  <rect width="1400" height="1120" fill="url(#bg)" opacity="0.95"/>
  <ellipse cx="1020" cy="165" rx="420" ry="260" fill="#FFFFFF" opacity="0.1" filter="url(#softGlow)"/>
  <ellipse cx="265" cy="875" rx="380" ry="260" fill="#FFFFFF" opacity="0.1" filter="url(#softGlow)"/>

  <g filter="url(#bigShadow)">
    <ellipse cx="700" cy="945" rx="360" ry="54" fill="#2D1A93" opacity="0.25"/>

    <g filter="url(#tagShadow)">
      <rect x="128" y="374" width="394" height="151" rx="36" transform="rotate(-14 128 374)" fill="url(#tag)" stroke="#E9E4FF" stroke-width="12"/>
      <rect x="151" y="392" width="346" height="48" rx="24" transform="rotate(-14 151 392)" fill="#FFFFFF" opacity="0.18"/>
      <text x="188" y="472" transform="rotate(-14 188 472)" fill="#FFFFFF" font-family="Barlow, Arial, sans-serif" font-size="80" font-weight="800" letter-spacing="2">6,500+</text>
      <text x="188" y="472" transform="rotate(-14 188 472)" fill="#FFFFFF" opacity="0.34" font-family="Barlow, Arial, sans-serif" font-size="80" font-weight="800" letter-spacing="2" dy="-7">6,500+</text>
      <rect x="108" y="326" width="22" height="78" rx="11" transform="rotate(-32 108 326)" fill="#F2EEFF"/>
      <rect x="65" y="395" width="22" height="78" rx="11" transform="rotate(-58 65 395)" fill="#F2EEFF"/>
      <rect x="232" y="316" width="22" height="78" rx="11" transform="rotate(4 232 316)" fill="#F2EEFF"/>
    </g>

    <path d="M510 486C534 367 662 326 799 352C939 379 1044 483 1048 641C1052 784 938 896 759 904C574 913 430 812 415 668C409 610 430 536 510 486Z" fill="url(#pigBody)"/>
    <path d="M506 500C448 454 386 455 351 500C323 536 321 597 345 635C386 593 436 570 504 572L506 500Z" fill="#F5A3C0"/>
    <path d="M540 424C572 333 655 336 704 427C644 412 598 412 540 424Z" fill="#FFB7CB"/>
    <path d="M760 395C806 314 886 329 923 426C867 407 816 400 760 395Z" fill="#FFB7CB"/>
    <path d="M535 427C572 342 648 345 694 426C645 392 587 390 535 427Z" fill="#EC83AB" opacity="0.55"/>
    <path d="M768 397C812 328 881 340 915 424C867 387 817 383 768 397Z" fill="#EC83AB" opacity="0.55"/>

    <ellipse cx="492" cy="664" rx="86" ry="72" fill="url(#snout)"/>
    <ellipse cx="457" cy="661" rx="16" ry="27" fill="#CA5C8B" opacity="0.8"/>
    <ellipse cx="514" cy="661" rx="16" ry="27" fill="#CA5C8B" opacity="0.8"/>
    <ellipse cx="611" cy="576" rx="20" ry="31" fill="#17142E"/>
    <ellipse cx="746" cy="584" rx="21" ry="32" fill="#17142E"/>
    <circle cx="603" cy="563" r="5" fill="#FFFFFF" opacity="0.45"/>
    <circle cx="738" cy="571" r="5" fill="#FFFFFF" opacity="0.45"/>
    <path d="M546 833C544 890 510 935 457 933C416 932 389 897 405 855C418 820 452 803 495 803L546 833Z" fill="#F08CB0"/>
    <path d="M829 828C849 883 824 935 774 941C733 946 699 915 708 872C715 836 748 814 790 806L829 828Z" fill="#E781A7"/>
    <path d="M895 426C963 430 1019 475 1027 544C985 519 946 511 903 520L895 426Z" fill="#D66B9A" opacity="0.62"/>
    <path d="M499 497C552 455 655 443 751 458" stroke="#FFD8DF" stroke-width="22" stroke-linecap="round" opacity="0.32"/>
    <ellipse cx="705" cy="438" rx="148" ry="46" transform="rotate(10 705 438)" fill="#FFFFFF" opacity="0.12"/>

    <path d="M515 280L740 205L1035 305L809 395L515 280Z" fill="url(#capTop)"/>
    <path d="M623 276L748 237L942 303L812 350L623 276Z" fill="#FFFFFF" opacity="0.12"/>
    <path d="M620 342C620 342 637 453 762 466C882 479 919 370 919 370L809 395L620 342Z" fill="#4329C1"/>
    <ellipse cx="797" cy="284" rx="54" ry="24" fill="#A99EFF" opacity="0.92"/>
    <path d="M842 290C978 330 1005 383 988 535" stroke="#4930C8" stroke-width="19" stroke-linecap="round"/>
    <circle cx="987" cy="535" r="25" fill="#F8DCE5"/>
    <path d="M983 558L954 700H1035L1008 558H983Z" fill="#5940E1"/>
    <path d="M967 615C989 631 1010 631 1024 615" stroke="#806EFF" stroke-width="6" opacity="0.55"/>

    <g>
      <ellipse cx="1074" cy="862" rx="108" ry="42" fill="#4228C1"/>
      <rect x="966" y="748" width="216" height="114" fill="#6650EA"/>
      <ellipse cx="1074" cy="748" rx="108" ry="42" fill="#9688FF"/>
      <ellipse cx="1074" cy="748" rx="76" ry="28" stroke="#563CD6" stroke-width="9" opacity="0.62"/>
      <text x="1043" y="773" fill="#DDD8FF" font-family="Barlow, Arial, sans-serif" font-size="62" font-weight="800">$</text>
      <path d="M966 794C994 829 1148 829 1182 794" stroke="#4930C8" stroke-width="8" opacity="0.45"/>
      <path d="M966 838C994 873 1148 873 1182 838" stroke="#4930C8" stroke-width="8" opacity="0.45"/>
    </g>

    <g transform="translate(854 839) rotate(-15)">
      <ellipse cx="0" cy="0" rx="96" ry="45" fill="url(#coin)"/>
      <ellipse cx="0" cy="0" rx="66" ry="28" stroke="#4E34D8" stroke-width="9" opacity="0.65"/>
      <text x="-28" y="22" fill="#DDD8FF" font-family="Barlow, Arial, sans-serif" font-size="64" font-weight="800">$</text>
    </g>

    <g transform="translate(708 924) rotate(5)">
      <ellipse cx="0" cy="0" rx="88" ry="38" fill="url(#coin)" opacity="0.95"/>
      <ellipse cx="0" cy="0" rx="58" ry="23" stroke="#4E34D8" stroke-width="8" opacity="0.6"/>
      <text x="-24" y="19" fill="#DDD8FF" font-family="Barlow, Arial, sans-serif" font-size="56" font-weight="800">$</text>
    </g>
  </g>
</svg>
